<?xml version="1.0" encoding="UTF-8" standalone="no"?>
<svg
   xmlns:dc="http://purl.org/dc/elements/1.1/"
   xmlns:cc="http://creativecommons.org/ns#"
   xmlns:rdf="http://www.w3.org/1999/02/22-rdf-syntax-ns#"
   xmlns:svg="http://www.w3.org/2000/svg"
   xmlns="http://www.w3.org/2000/svg"
   viewBox="0 0 257.33334 257.33334"
   height="257.33334"
   width="257.33334"
   xml:space="preserve"
   id="svg2"
   version="1.1"><metadata
     id="metadata8"><rdf:RDF><cc:Work
         rdf:about=""><dc:format>image/svg+xml</dc:format><dc:type
           rdf:resource="http://purl.org/dc/dcmitype/StillImage" /></cc:Work></rdf:RDF></metadata><defs
     id="defs6" /><g
     transform="matrix(1.3333333,0,0,-1.3333333,0,257.33333)"
     id="g10"><g
       transform="scale(0.1)"
       id="g12"><path
         id="path14"
         style="fill:#ffffff;fill-opacity:1;fill-rule:evenodd;stroke:none"
         d="M 0,1927.56 H 1927.56 V 0 H 0 v 1927.56" /><path
         id="path16"
         style="fill:#5259ac;fill-opacity:1;fill-rule:evenodd;stroke:none"
         d="M 123.328,1289.55 1427.61,133.625 1744.94,1793.93 Z M 1313.43,380.141 366.504,1219.34 1622.44,1617.05 1313.43,380.141" /><g
         transform="scale(0.997795,1.00221)"
         id="g18"><path
           id="path20"
           style="fill:none;stroke:#231f20;stroke-width:13.97399998;stroke-linecap:butt;stroke-linejoin:miter;stroke-miterlimit:2.61310005;stroke-dasharray:none;stroke-opacity:1"
           d="M 123.601,1286.71 1430.76,133.331 1748.79,1789.99 Z M 1316.33,379.304 367.314,1216.66 1626.03,1613.49 Z" /></g><path
         id="path22"
         style="fill:#231f20;fill-opacity:1;fill-rule:evenodd;stroke:none"
         d="m 834.348,1509.56 118.57,-353.8 111.572,35.03 -73.22,367.81 -156.922,-49.04" /><g
         transform="scale(0.997795,1.00221)"
         id="g24"><path
           id="path26"
           style="fill:none;stroke:#231f20;stroke-width:27.9477005;stroke-linecap:butt;stroke-linejoin:miter;stroke-miterlimit:2.61310005;stroke-dasharray:none;stroke-opacity:1"
           d="m 836.191,1506.24 118.833,-353.03 111.816,34.96 -73.38,367 z" /></g><path
         id="path28"
         style="fill:#231f20;fill-opacity:1;fill-rule:evenodd;stroke:none"
         d="m 1432.42,1206.57 -106.37,246.94 -170.88,-56.05 31.39,-91.08 76.71,28.05 17.45,-73.59 c 0,0 -129.02,-52.52 -153.44,136.62 -24.41,189.15 139.5,147.13 139.5,147.13 l -45.34,136.58 c 0,0 -149.96,31.54 -198.77,-108.57 0,0 -59.49,-209.96 73.22,-343.26 C 1218.33,1106.36 1299.91,1126 1299.91,1126 l 132.51,80.57" /><g
         transform="scale(0.997795,1.00221)"
         id="g30"><path
           id="path32"
           style="fill:none;stroke:#231f20;stroke-width:27.9477005;stroke-linecap:butt;stroke-linejoin:miter;stroke-miterlimit:2.61310005;stroke-dasharray:none;stroke-opacity:1"
           d="m 1435.59,1203.92 -106.6,246.39 -171.27,-55.92 31.46,-90.88 76.88,27.98 17.49,-73.42 c 0,0 -129.31,-52.41 -153.78,136.32 -24.46,188.72 139.81,146.8 139.81,146.8 l -45.44,136.28 c 0,0 -150.3,31.48 -199.21,-108.33 0,0 -59.622,-209.5 73.38,-342.51 122.71,-122.71 204.47,-103.1 204.47,-103.1 z" /></g><path
         id="path34"
         style="fill:#231f20;fill-opacity:1;fill-rule:evenodd;stroke:none"
         d="m 799.477,1260.84 c 0,0 90.648,38.55 55.773,154.15 C 795.566,1612.87 520.488,1443 520.488,1443 l 160.399,-441.36 c 0,0 188.336,-35.023 223.207,87.59 38.324,134.78 -104.617,171.61 -104.617,171.61 z m -132.536,112.11 c 0,0 97.657,38.51 87.2,-21.03 -10.465,-59.54 -48.852,-73.54 -48.852,-73.54 z m 80.207,-287.25 -38.355,108.62 c 38.355,20.98 87.176,20.98 101.121,-31.54 13.973,-52.56 -62.766,-77.08 -62.766,-77.08" /><g
         transform="scale(0.997795,1.00221)"
         id="g36"><path
           id="path38"
           style="fill:none;stroke:#231f20;stroke-width:27.9477005;stroke-linecap:butt;stroke-linejoin:miter;stroke-miterlimit:2.61310005;stroke-dasharray:none;stroke-opacity:1"
           d="m 801.243,1258.07 c 0,0 90.849,38.46 55.897,153.81 -59.815,197.44 -335.501,27.94 -335.501,27.94 L 682.391,999.437 c 0,0 188.753,-34.947 223.701,87.393 38.409,134.49 -104.849,171.24 -104.849,171.24 z m -132.828,111.85 c 0,0 97.872,38.44 87.392,-20.98 -10.488,-59.4 -48.959,-73.38 -48.959,-73.38 z m 80.385,-286.61 -38.441,108.38 c 38.441,20.94 87.369,20.94 101.345,-31.47 14.003,-52.44 -62.904,-76.91 -62.904,-76.91 z" /></g><path
         id="path40"
         style="fill:#ede82e;fill-opacity:1;fill-rule:evenodd;stroke:none"
         d="m 810.336,1523.79 118.566,-353.77 111.608,35.03 -73.256,367.78 -156.918,-49.04" /><g
         transform="scale(0.997795,1.00221)"
         id="g42"><path
           id="path44"
           style="fill:none;stroke:#231f20;stroke-width:6.99900007;stroke-linecap:butt;stroke-linejoin:miter;stroke-miterlimit:2.61310005;stroke-dasharray:none;stroke-opacity:1"
           d="m 812.127,1520.44 118.828,-352.99 111.855,34.95 -73.419,366.97 z" /></g><path
         id="path46"
         style="fill:#231f20;fill-opacity:1;fill-rule:evenodd;stroke:none"
         d="m 890.148,1563.09 c -74.933,-16.38 -143.339,5.53 -152.746,48.98 -9.41,43.41 43.711,91.91 118.672,108.29 74.938,16.38 143.321,-5.53 152.726,-48.98 9.41,-43.42 -43.71,-91.91 -118.652,-108.29" /><g
         transform="scale(0.997795,1.00221)"
         id="g48"><path
           id="path50"
           style="fill:none;stroke:#231f20;stroke-width:6.99900007;stroke-linecap:butt;stroke-linejoin:miter;stroke-miterlimit:2.61310005;stroke-dasharray:none;stroke-opacity:1"
           d="m 892.116,1559.65 c -75.1,-16.34 -143.657,5.52 -153.084,48.87 -9.431,43.32 43.807,91.71 118.934,108.05 75.103,16.35 143.634,-5.51 153.064,-48.86 9.43,-43.33 -43.807,-91.72 -118.914,-108.06 z" /></g><path
         id="path52"
         style="fill:#231f20;fill-opacity:1;fill-rule:evenodd;stroke:none"
         d="m 1050.94,721.652 -34.87,185.649 -296.414,-182.125 59.289,-140.113 80.211,38.527 94.157,-301.246 118.567,35.027 -97.642,332.774 76.702,31.507" /><g
         transform="scale(0.997795,1.00221)"
         id="g54"><path
           id="path56"
           style="fill:none;stroke:#231f20;stroke-width:27.9477005;stroke-linecap:butt;stroke-linejoin:miter;stroke-miterlimit:2.61310005;stroke-dasharray:none;stroke-opacity:1"
           d="m 1053.26,720.065 -34.94,185.24 -297.073,-181.725 59.42,-139.805 80.388,38.443 94.364,-300.583 118.831,34.95 -97.859,332.041 z" /></g><path
         id="path58"
         style="fill:#231f20;fill-opacity:1;fill-rule:evenodd;stroke:none"
         d="m 1075.39,742.676 118.56,56.047 69.75,-423.828 -174.37,-10.512 -13.94,378.293" /><g
         transform="scale(0.997795,1.00221)"
         id="g60"><path
           id="path62"
           style="fill:none;stroke:#231f20;stroke-width:27.9477005;stroke-linecap:butt;stroke-linejoin:miter;stroke-miterlimit:2.61310005;stroke-dasharray:none;stroke-opacity:1"
           d="m 1077.76,741.042 118.83,55.923 69.9,-422.895 -174.75,-10.489 z" /></g><path
         id="path64"
         style="fill:#231f20;fill-opacity:1;fill-rule:evenodd;stroke:none"
         d="m 1145.13,746.172 115.06,38.547 118.59,-161.129 -27.92,196.152 94.16,42.024 184.84,-332.754 -97.64,-70.055 -92.99,189.148 9.3,-203.152 -139.49,170.465 83.69,-184.504 -116.27,-30.332 -131.33,345.59" /><g
         transform="scale(0.997795,1.00221)"
         id="g66"><path
           id="path68"
           style="fill:none;stroke:#231f20;stroke-width:27.9477005;stroke-linecap:butt;stroke-linejoin:miter;stroke-miterlimit:2.61310005;stroke-dasharray:none;stroke-opacity:1"
           d="m 1147.66,744.53 115.32,38.462 118.85,-160.774 -27.98,195.721 94.37,41.931 185.24,-332.022 -97.86,-69.901 -93.19,188.733 9.32,-202.706 -139.8,170.09 83.87,-184.098 -116.51,-30.265 z" /></g><path
         id="path70"
         style="fill:#231f20;fill-opacity:1;fill-rule:evenodd;stroke:none"
         d="m 1420.61,802.215 226.69,87.582 38.36,-87.582 -129.03,-38.516 24.41,-59.554 118.56,42.027 27.92,-70.031 -125.56,-31.536 27.9,-52.55 122.07,49.027 24.4,-84.059 -230.17,-59.543 -125.55,304.735" /><g
         transform="scale(0.997795,1.00221)"
         id="g72"><path
           id="path74"
           style="fill:none;stroke:#231f20;stroke-width:27.9477005;stroke-linecap:butt;stroke-linejoin:miter;stroke-miterlimit:2.61310005;stroke-dasharray:none;stroke-opacity:1"
           d="m 1423.75,800.45 227.2,87.389 38.44,-87.389 -129.32,-38.431 24.47,-59.424 118.82,41.935 27.98,-69.877 -125.83,-31.466 27.95,-52.435 122.34,48.92 24.46,-83.874 -230.68,-59.412 z" /></g><path
         id="path76"
         style="fill:#ede82e;fill-opacity:1;fill-rule:evenodd;stroke:none"
         d="m 1408.41,1220.8 -106.36,246.94 -170.89,-56.04 31.39,-91.05 76.74,28.01 17.42,-73.55 c 0,0 -129.03,-52.56 -153.44,136.59 -24.41,189.17 139.5,147.12 139.5,147.12 l -45.34,136.62 c 0,0 -149.96,31.53 -198.778,-108.6 0,0 -59.484,-209.97 73.228,-343.26 122.44,-122.99 204.02,-103.35 204.02,-103.35 l 132.51,80.57" /><g
         transform="scale(0.997795,1.00221)"
         id="g78"><path
           id="path80"
           style="fill:none;stroke:#231f20;stroke-width:6.99900007;stroke-linecap:butt;stroke-linejoin:miter;stroke-miterlimit:2.61310005;stroke-dasharray:none;stroke-opacity:1"
           d="m 1411.52,1218.12 -106.59,246.39 -171.27,-55.91 31.46,-90.86 76.91,27.95 17.46,-73.38 c 0,0 -129.32,-52.45 -153.78,136.29 -24.46,188.75 139.81,146.79 139.81,146.79 l -45.45,136.32 c 0,0 -150.29,31.46 -199.21,-108.37 0,0 -59.617,-209.5 73.39,-342.5 122.71,-122.72 204.47,-103.11 204.47,-103.11 z" /></g><path
         id="path82"
         style="fill:#ede82e;fill-opacity:1;fill-rule:evenodd;stroke:none"
         d="m 1050.94,760.199 118.6,56.051 69.75,-423.852 -174.37,-10.511 -13.98,378.312" /><g
         transform="scale(0.997795,1.00221)"
         id="g84"><path
           id="path86"
           style="fill:none;stroke:#231f20;stroke-width:6.99900007;stroke-linecap:butt;stroke-linejoin:miter;stroke-miterlimit:2.61310005;stroke-dasharray:none;stroke-opacity:1"
           d="m 1053.26,758.527 118.86,55.927 69.91,-422.919 -174.76,-10.488 z" /></g><path
         id="path88"
         style="fill:#ede82e;fill-opacity:1;fill-rule:evenodd;stroke:none"
         d="m 1120.7,763.699 115.08,38.516 118.59,-161.133 -27.91,196.164 94.15,42.047 184.84,-332.785 -97.64,-70.047 -93.01,189.172 9.32,-203.188 -139.49,170.477 83.69,-184.477 -116.25,-30.359 -131.37,345.613" /><g
         transform="scale(0.997795,1.00221)"
         id="g90"><path
           id="path92"
           style="fill:none;stroke:#231f20;stroke-width:6.99900007;stroke-linecap:butt;stroke-linejoin:miter;stroke-miterlimit:2.61310005;stroke-dasharray:none;stroke-opacity:1"
           d="m 1123.17,762.019 115.34,38.431 118.85,-160.778 -27.97,195.732 94.36,41.954 185.24,-332.053 -97.85,-69.892 -93.21,188.755 9.34,-202.74 -139.81,170.101 83.88,-184.07 -116.51,-30.293 z" /></g><path
         id="path94"
         style="fill:#ede82e;fill-opacity:1;fill-rule:evenodd;stroke:none"
         d="m 1396.21,819.742 226.68,87.559 38.36,-87.559 -129.03,-38.547 24.41,-59.543 118.57,42.047 27.91,-70.054 -125.55,-31.536 27.89,-52.527 122.07,49.027 24.41,-84.062 -230.18,-59.539 -125.54,304.734" /><g
         transform="scale(0.997795,1.00221)"
         id="g96"><path
           id="path98"
           style="fill:none;stroke:#231f20;stroke-width:6.99900007;stroke-linecap:butt;stroke-linejoin:miter;stroke-miterlimit:2.61310005;stroke-dasharray:none;stroke-opacity:1"
           d="m 1399.3,817.939 227.18,87.366 38.44,-87.366 -129.32,-38.462 24.47,-59.412 118.83,41.954 27.98,-69.901 -125.83,-31.465 27.94,-52.412 122.35,48.919 24.46,-83.877 -230.68,-59.408 z" /></g><path
         id="path100"
         style="fill:#231f20;fill-opacity:1;fill-rule:evenodd;stroke:none"
         d="M 949.836,970.367 981.199,854.77 1804.23,1036.9 1800.75,1226.07 949.836,970.367" /><path
         id="path102"
         style="fill:#e61f2d;fill-opacity:1;fill-rule:evenodd;stroke:none"
         d="m 928.902,991.363 31.395,-115.57 822.993,182.127 -3.47,189.15 -850.918,-255.707" /><path
         id="path104"
         style="fill:#231f20;fill-opacity:1;fill-rule:evenodd;stroke:none"
         d="m 1059.81,1089.17 v -73.58 l 69.75,3.52 3.51,-115.59 66.24,3.496 -22.67,113.844 43.61,-1.75 -5.23,82.32 -155.21,-12.26" /><g
         transform="scale(0.997795,1.00221)"
         id="g106"><path
           id="path108"
           style="fill:none;stroke:#231f20;stroke-width:6.99900007;stroke-linecap:butt;stroke-linejoin:miter;stroke-miterlimit:2.61310005;stroke-dasharray:none;stroke-opacity:1"
           d="m 1062.15,1086.78 v -73.42 l 69.91,3.51 3.51,-115.338 66.39,3.488 -22.72,113.6 43.7,-1.75 -5.23,82.14 z" /></g><path
         id="path110"
         style="fill:#231f20;fill-opacity:1;fill-rule:evenodd;stroke:none"
         d="m 1261.5,1087.68 c -31.71,0 -57.43,-34.94 -57.43,-78.07 0,-43.106 25.72,-78.047 57.43,-78.047 25.53,0 57.46,32.992 57.46,78.047 0,43.13 -25.72,78.07 -57.46,78.07 z m 0,-102.653 c -9.98,0 -18.07,11.004 -18.07,24.583 0,13.6 8.09,24.59 18.07,24.59 10.02,0 18.11,-10.99 18.11,-24.59 0,-13.579 -8.09,-24.583 -18.11,-24.583" /><g
         transform="scale(0.997795,1.00221)"
         id="g112"><path
           id="path114"
           style="fill:none;stroke:#231f20;stroke-width:6.99900007;stroke-linecap:butt;stroke-linejoin:miter;stroke-miterlimit:2.61310005;stroke-dasharray:none;stroke-opacity:1"
           d="m 1264.29,1085.29 c -31.78,0 -57.56,-34.86 -57.56,-77.91 0,-43.003 25.78,-77.867 57.56,-77.867 25.58,0 57.59,32.92 57.59,77.867 0,43.05 -25.78,77.91 -57.59,77.91 z m 0,-102.43 c -10,0 -18.12,10.98 -18.12,24.52 0,13.58 8.12,24.55 18.12,24.55 10.04,0 18.14,-10.97 18.14,-24.55 0,-13.54 -8.1,-24.52 -18.14,-24.52 z" /></g><path
         id="path116"
         style="fill:#231f20;fill-opacity:1;fill-rule:evenodd;stroke:none"
         d="m 1428.91,992.824 c 8.7,-59.543 50.73,-84.953 100.55,-40.269 35.21,31.593 12.88,53.015 -22.1,71.805 -13.49,7.27 -33.43,12.94 -45.91,20.45 -37.87,22.71 27.32,28.57 34.3,14.57 l 22.07,47.89 c 0,0 -82.18,24.15 -98.8,-12.26 -19.16,-42.05 6.39,-69.48 29.66,-78.81 l 44.16,-13.44 c 0,0 19.77,-4.092 0,-23.338 -10.46,-10.195 -26.75,20.414 -26.75,20.414 l -37.18,-7.012" /><g
         transform="scale(0.997795,1.00221)"
         id="g118"><path
           id="path120"
           style="fill:none;stroke:#231f20;stroke-width:6.99900007;stroke-linecap:butt;stroke-linejoin:miter;stroke-miterlimit:2.61310005;stroke-dasharray:none;stroke-opacity:1"
           d="m 1432.07,990.64 c 8.72,-59.412 50.84,-84.766 100.77,-40.181 35.29,31.524 12.91,52.901 -22.15,71.641 -13.52,7.26 -33.5,12.91 -46.01,20.41 -37.96,22.66 27.38,28.51 34.38,14.54 l 22.12,47.79 c 0,0 -82.37,24.09 -99.02,-12.24 -19.21,-41.95 6.4,-69.33 29.72,-78.64 l 44.26,-13.41 c 0,0 19.81,-4.079 0,-23.283 -10.49,-10.173 -26.81,20.369 -26.81,20.369 z" /></g><path
         id="path122"
         style="fill:#231f20;fill-opacity:1;fill-rule:evenodd;stroke:none"
         d="m 1331.25,996.914 c -14.43,4.416 -49.99,58.976 -49.99,58.976 l 52.33,24.52 29.05,-53.71 12.81,67.71 h 55.77 l -24.4,-91.07 c 0,0 -24.98,-100.422 -68.02,-79.395 -24.54,11.996 -30.22,31.532 -30.22,31.532 l 35.47,26.867 c 0,0 8.13,-21.629 13.94,-21.028 2.89,0.293 22.67,10.516 13.95,24.52 -10.78,17.324 -21.5,5.242 -40.69,11.078" /><g
         transform="scale(0.997795,1.00221)"
         id="g124"><path
           id="path126"
           style="fill:none;stroke:#231f20;stroke-width:6.99900007;stroke-linecap:butt;stroke-linejoin:miter;stroke-miterlimit:2.61310005;stroke-dasharray:none;stroke-opacity:1"
           d="m 1334.19,994.721 c -14.46,4.408 -50.1,58.849 -50.1,58.849 l 52.45,24.46 29.11,-53.59 12.83,67.56 h 55.91 l -24.46,-90.87 c 0,0 -25.04,-100.199 -68.17,-79.218 -24.6,11.97 -30.29,31.462 -30.29,31.462 l 35.55,26.808 c 0,0 8.14,-21.581 13.97,-20.981 2.89,0.293 22.73,10.493 13.98,24.466 -10.8,17.283 -21.55,5.231 -40.78,11.054 z" /></g><path
         id="path128"
         style="fill:#ede82e;fill-opacity:1;fill-rule:evenodd;stroke:none"
         d="m 775.461,1275.11 c 0,0 90.687,38.52 55.809,154.12 -59.711,197.91 -334.79,28.01 -334.79,28.01 l 160.422,-441.33 c 0,0 188.309,-35.027 223.188,87.55 38.351,134.81 -104.629,171.65 -104.629,171.65 z m -132.535,112.07 c 0,0 97.668,38.55 87.199,-20.99 -10.469,-59.58 -48.812,-73.58 -48.812,-73.58 z m 80.219,-287.21 -38.356,108.58 c 38.356,21.02 87.164,21.02 101.141,-31.54 13.945,-52.53 -62.785,-77.04 -62.785,-77.04" /><g
         transform="scale(0.997795,1.00221)"
         id="g130"><path
           id="path132"
           style="fill:none;stroke:#231f20;stroke-width:6.99900007;stroke-linecap:butt;stroke-linejoin:miter;stroke-miterlimit:2.61310005;stroke-dasharray:none;stroke-opacity:1"
           d="m 777.175,1272.31 c 0,0 90.888,38.42 55.932,153.77 -59.843,197.48 -335.529,27.95 -335.529,27.95 l 160.776,-440.36 c 0,0 188.725,-34.945 223.681,87.37 38.436,134.51 -104.86,171.27 -104.86,171.27 z m -132.828,111.82 c 0,0 97.883,38.46 87.391,-20.95 -10.491,-59.44 -48.92,-73.42 -48.92,-73.42 z m 80.396,-286.58 -38.441,108.34 c 38.441,20.97 87.357,20.97 101.365,-31.47 13.976,-52.41 -62.924,-76.87 -62.924,-76.87 z" /></g><path
         id="path134"
         style="fill:#ede82e;fill-opacity:1;fill-rule:evenodd;stroke:none"
         d="m 1044.41,1100.54 v -73.55 l 69.75,3.5 3.49,-115.595 66.26,3.523 -22.66,113.812 43.59,-1.74 -5.22,82.31 -155.21,-12.26" /><g
         transform="scale(0.997795,1.00221)"
         id="g136"><path
           id="path138"
           style="fill:none;stroke:#231f20;stroke-width:6.99900007;stroke-linecap:butt;stroke-linejoin:miter;stroke-miterlimit:2.61310005;stroke-dasharray:none;stroke-opacity:1"
           d="m 1046.72,1098.12 v -73.39 l 69.91,3.49 3.49,-115.338 66.41,3.515 -22.72,113.563 43.7,-1.74 -5.24,82.13 z" /></g><path
         id="path140"
         style="fill:#ede82e;fill-opacity:1;fill-rule:evenodd;stroke:none"
         d="m 1246.1,1099.05 c -31.71,0 -57.43,-34.95 -57.43,-78.05 0,-43.098 25.72,-78.039 57.43,-78.039 25.53,0 57.47,32.992 57.47,78.039 0,43.1 -25.73,78.05 -57.47,78.05 z m 0,-102.644 c -9.97,0 -18.07,11.024 -18.07,24.594 0,13.58 8.1,24.61 18.07,24.61 10.01,0 18.11,-11.03 18.11,-24.61 0,-13.57 -8.1,-24.594 -18.11,-24.594" /><g
         transform="scale(0.997795,1.00221)"
         id="g142"><path
           id="path144"
           style="fill:none;stroke:#231f20;stroke-width:6.99900007;stroke-linecap:butt;stroke-linejoin:miter;stroke-miterlimit:2.61310005;stroke-dasharray:none;stroke-opacity:1"
           d="m 1248.85,1096.63 c -31.78,0 -57.55,-34.87 -57.55,-77.87 0,-43.009 25.77,-77.874 57.55,-77.874 25.59,0 57.6,32.92 57.6,77.874 0,43 -25.79,77.87 -57.6,77.87 z m 0,-102.416 c -9.99,0 -18.11,10.996 -18.11,24.546 0,13.54 8.12,24.55 18.11,24.55 10.04,0 18.15,-11.01 18.15,-24.55 0,-13.55 -8.11,-24.546 -18.15,-24.546 z" /></g><path
         id="path146"
         style="fill:#ede82e;fill-opacity:1;fill-rule:evenodd;stroke:none"
         d="m 1413.51,1004.22 c 8.7,-59.54 50.73,-84.943 100.55,-40.267 35.22,31.559 12.86,52.987 -22.1,71.797 -13.49,7.26 -33.45,12.96 -45.91,20.43 -37.87,22.71 27.32,28.61 34.3,14.6 l 22.08,47.86 c 0,0 -82.19,24.15 -98.81,-12.26 -19.19,-42.04 6.39,-69.48 29.66,-78.81 l 44.16,-13.43 c 0,0 19.77,-4.07 0,-23.355 -10.47,-10.195 -26.74,20.455 -26.74,20.455 l -37.19,-7.02" /><g
         transform="scale(0.997795,1.00221)"
         id="g148"><path
           id="path150"
           style="fill:none;stroke:#231f20;stroke-width:6.99900007;stroke-linecap:butt;stroke-linejoin:miter;stroke-miterlimit:2.61310005;stroke-dasharray:none;stroke-opacity:1"
           d="m 1416.64,1002.01 c 8.71,-59.409 50.84,-84.755 100.76,-40.178 35.3,31.489 12.89,52.868 -22.14,71.648 -13.52,7.23 -33.53,12.92 -46.01,20.37 -37.96,22.67 27.37,28.56 34.37,14.57 l 22.13,47.76 c 0,0 -82.37,24.09 -99.03,-12.24 -19.23,-41.94 6.4,-69.32 29.72,-78.63 l 44.27,-13.4 c 0,0 19.81,-4.06 0,-23.305 -10.5,-10.173 -26.8,20.405 -26.8,20.405 z" /></g><path
         id="path152"
         style="fill:#ede82e;fill-opacity:1;fill-rule:evenodd;stroke:none"
         d="m 1315.85,1008.32 c -14.43,4.38 -49.99,58.95 -49.99,58.95 l 52.33,24.5 29.06,-53.69 12.77,67.73 h 55.81 l -24.41,-91.08 c 0,0 -24.98,-100.414 -68.01,-79.386 -24.59,11.996 -30.23,31.5 -30.23,31.5 l 35.47,26.867 c 0,0 8.14,-21.598 13.94,-21.02 2.89,0.282 22.68,10.516 13.95,24.516 -10.78,17.333 -21.5,5.273 -40.69,11.113" /><g
         transform="scale(0.997795,1.00221)"
         id="g154"><path
           id="path156"
           style="fill:none;stroke:#231f20;stroke-width:6.99900007;stroke-linecap:butt;stroke-linejoin:miter;stroke-miterlimit:2.61310005;stroke-dasharray:none;stroke-opacity:1"
           d="m 1318.76,1006.1 c -14.47,4.37 -50.1,58.82 -50.1,58.82 l 52.44,24.45 29.12,-53.58 12.81,67.59 h 55.93 l -24.47,-90.88 c 0,0 -25.03,-100.195 -68.16,-79.214 -24.64,11.97 -30.29,31.431 -30.29,31.431 l 35.54,26.808 c 0,0 8.16,-21.551 13.98,-20.974 2.89,0.281 22.72,10.493 13.98,24.462 -10.8,17.287 -21.55,5.257 -40.78,11.087 z" /></g><path
         id="path158"
         style="fill:#ede82e;fill-opacity:1;fill-rule:evenodd;stroke:none"
         d="m 1026.54,739.184 -34.872,185.648 -296.41,-182.156 59.281,-140.113 80.215,38.519 94.148,-301.211 118.568,35.024 -97.634,332.753 76.704,31.536" /><g
         transform="scale(0.997795,1.00221)"
         id="g160"><path
           id="path162"
           style="fill:none;stroke:#231f20;stroke-width:6.99900007;stroke-linecap:butt;stroke-linejoin:miter;stroke-miterlimit:2.61310005;stroke-dasharray:none;stroke-opacity:1"
           d="m 1028.8,737.557 -34.941,185.24 -297.065,-181.755 59.413,-139.805 80.392,38.435 94.356,-300.549 118.825,34.947 -97.845,332.021 z" /></g><path
         id="path164"
         style="fill:#ede82e;fill-opacity:1;fill-rule:evenodd;stroke:none"
         d="m 869.621,1571.52 c -74.937,-16.39 -143.32,5.52 -152.726,48.94 -9.411,43.42 43.714,91.9 118.644,108.32 74.945,16.39 143.356,-5.56 152.766,-48.98 9.41,-43.42 -43.746,-91.91 -118.684,-108.28" /><g
         transform="scale(0.997795,1.00221)"
         id="g166"><path
           id="path168"
           style="fill:none;stroke:#231f20;stroke-width:6.99900007;stroke-linecap:butt;stroke-linejoin:miter;stroke-miterlimit:2.61310005;stroke-dasharray:none;stroke-opacity:1"
           d="m 871.543,1568.06 c -75.103,-16.35 -143.637,5.51 -153.064,48.84 -9.431,43.32 43.811,91.7 118.907,108.08 75.11,16.35 143.672,-5.55 153.103,-48.88 9.431,-43.32 -43.843,-91.7 -118.946,-108.04 z" /></g></g></g></svg>